<?xml version="1.0" encoding="UTF-8" standalone="no"?>
<svg
   viewBox="0 0 24 24"
   width="24"
   height="24"
   version="1.1"
   id="svg4"
   sodipodiDocname="user.svg"
   inkscapeVersion="1.2.2 (b0a8486541, 2022-12-01)"
   xmlnsInkscape="http://www.inkscape.org/namespaces/inkscape"
   xmlnsSodipodi="http://sodipodi.sourceforge.net/DTD/sodipodi-0.dtd"
   xmlns="http://www.w3.org/2000/svg"
   xmlnsSvg="http://www.w3.org/2000/svg">
  <defs
     id="defs8" />
  <sodipodiNamedview
     id="namedview6"
     pagecolor="#ffffff"
     bordercolor="#999999"
     borderopacity="1"
     inkscapeShowpageshadow="0"
     inkscapePageopacity="0"
     inkscapePagecheckerboard="0"
     inkscapeDeskcolor="#d1d1d1"
     showgrid="false"
     inkscapeZoom="35.833333"
     inkscapeCx="12"
     inkscapeCy="12"
     inkscapeWindow-width="1920"
     inkscapeWindow-height="1047"
     inkscapeWindow-x="0"
     inkscapeWindow-y="33"
     inkscapeWindow-maximized="1"
     inkscapeCurrent-layer="svg4" />
  <path
     d="M20 22H18V20C18 18.3431 16.6569 17 15 17H9C7.34315 17 6 18.3431 6 20V22H4V20C4 17.2386 6.23858 15 9 15H15C17.7614 15 20 17.2386 20 20V22ZM12 13C8.68629 13 6 10.3137 6 7C6 3.68629 8.68629 1 12 1C15.3137 1 18 3.68629 18 7C18 10.3137 15.3137 13 12 13ZM12 11C14.2091 11 16 9.20914 16 7C16 4.79086 14.2091 3 12 3C9.79086 3 8 4.79086 8 7C8 9.20914 9.79086 11 12 11Z"
     fill="#000"
     id="path2" />
  <path
     d="m 22.755774,8.0386467 c 0,5.0587063 -2.90925,9.1595293 -6.49799,9.1595293 v -2.03545 c 2.791241,0 5.053993,-3.189553 5.053993,-7.1240793 z"
     fill="#000000"
     id="path1517"
     style="stroke-width:0.857202" />
</svg>
